<svg viewBox="0 0 100 100" fill="none" xmlns="http://www.w3.org/2000/svg" height="32" style="margin-bottom: -6.5px; margin-right: 8px; cursor: pointer;"><path d="M3 45.95c0-24.853 20.147-45 45-45 14.088 0 26.665 6.474 34.916 16.61L48.871 48.32 9.492 69.247A44.79 44.79 0 0 1 3 45.95Z" fill="#EB5757"></path><path d="M3.5 45.95c0-24.577 19.923-44.5 44.5-44.5 13.761 0 26.063 6.246 34.227 16.059L48.581 47.908 9.677 68.583A44.291 44.291 0 0 1 3.5 45.95Z" stroke="#F2994A" stroke-opacity="0.07"></path><path fill-rule="evenodd" clip-rule="evenodd" d="M48.5 93.497V52.693L8.992 73.336c8.738 12.76 22.878 20.161 39.51 20.161Z" fill="#F2C94C"></path><path d="M48 92.995C31.946 92.85 18.3 85.723 9.726 73.517l38.276-19.999v39.477Z" stroke="#F2994A" stroke-opacity="0.25"></path><path fill-rule="evenodd" clip-rule="evenodd" d="M87.866 18.948 53.79 50.77v45.18C76.808 92.17 95.7 71.539 95.7 47.45c0-11.652-1.683-20.632-7.834-28.503Z" fill="#14CC60"></path><path d="M54.29 95.358v-44.37l33.515-31.3c5.78 7.64 7.394 16.372 7.394 27.763 0 23.625-18.382 43.914-40.91 47.907Z" stroke="#F2994A" stroke-opacity="0.25"></path></svg>